<svg width="41" height="40" viewBox="0 0 41 40" fill="none" xmlns="http://www.w3.org/2000/svg">
<path d="M20.8258 3.33325C11.6258 3.33325 4.15918 10.7999 4.15918 19.9999C4.15918 29.1999 11.6258 36.6666 20.8258 36.6666C30.0258 36.6666 37.4925 29.1999 37.4925 19.9999C37.4925 10.7999 30.0258 3.33325 20.8258 3.33325ZM28.5592 14.6666C28.3092 17.2999 27.2258 23.6999 26.6758 26.6499C26.4425 27.8999 25.9758 28.3166 25.5425 28.3666C24.5758 28.4499 23.8425 27.7333 22.9092 27.1166C21.4425 26.1499 20.6092 25.5499 19.1925 24.6166C17.5425 23.5333 18.6092 22.9333 19.5592 21.9666C19.8092 21.7166 24.0758 17.8333 24.1592 17.4833C24.1708 17.4302 24.1692 17.3752 24.1547 17.3229C24.1402 17.2706 24.1131 17.2227 24.0758 17.1833C23.9758 17.0999 23.8425 17.1333 23.7258 17.1499C23.5758 17.1833 21.2425 18.7333 16.6925 21.7999C16.0258 22.2499 15.4258 22.4833 14.8925 22.4666C14.2925 22.4499 13.1592 22.1333 12.3092 21.8499C11.2592 21.5166 10.4425 21.3333 10.5092 20.7499C10.5425 20.4499 10.9592 20.1499 11.7425 19.8333C16.6092 17.7166 19.8425 16.3166 21.4592 15.6499C26.0925 13.7166 27.0425 13.3833 27.6758 13.3833C27.8092 13.3833 28.1258 13.4166 28.3258 13.5833C28.4925 13.7166 28.5425 13.8999 28.5592 14.0333C28.5425 14.1333 28.5758 14.4333 28.5592 14.6666Z" fill="white"/>
</svg>
