<svg width="41" height="40" viewBox="0 0 41 40" fill="none" xmlns="http://www.w3.org/2000/svg">
<path d="M20.4909 3C11.287 3 3.82593 10.4611 3.82593 19.665C3.82593 28.8689 11.287 36.33 20.4909 36.33C29.6949 36.33 37.1559 28.8689 37.1559 19.665C37.1559 10.4611 29.6949 3 20.4909 3ZM26.9 21.8019C26.9 21.8019 28.3738 23.2567 28.7366 23.9319C28.747 23.947 28.7534 23.9586 28.7557 23.9667C28.9027 24.2132 28.9392 24.4082 28.8651 24.5517C28.7436 24.7912 28.327 24.9093 28.1846 24.9197H25.5807C25.4002 24.9197 25.0217 24.8728 24.5634 24.5569C24.211 24.3104 23.8639 23.9059 23.5253 23.5118C23.0202 22.9251 22.5827 22.4182 22.1418 22.4182C22.0858 22.418 22.0301 22.4267 21.9769 22.4442C21.6436 22.5519 21.2166 23.0275 21.2166 24.2947C21.2166 24.6905 20.9041 24.9179 20.6836 24.9179H19.491C19.0848 24.9179 16.9687 24.7756 15.0939 22.7984C12.799 20.3767 10.7332 15.5196 10.7159 15.4744C10.5857 15.1602 10.8547 14.9919 11.1481 14.9919H13.7781C14.1287 14.9919 14.2433 15.2054 14.3231 15.3946C14.4169 15.6151 14.7606 16.4917 15.3248 17.4777C16.2396 19.0852 16.8003 19.7379 17.2499 19.7379C17.3342 19.7369 17.417 19.7155 17.4912 19.6754C18.078 19.3491 17.9686 17.2573 17.9426 16.8233C17.9426 16.7417 17.9408 15.8876 17.6405 15.4779C17.4253 15.1811 17.059 15.0682 16.8368 15.0266C16.9267 14.9025 17.0452 14.8018 17.1822 14.7332C17.585 14.5318 18.3106 14.5023 19.031 14.5023H19.432C20.2132 14.5127 20.4145 14.5631 20.6975 14.6343C21.2704 14.7714 21.2825 15.1411 21.2322 16.4066C21.2166 16.766 21.2009 17.1722 21.2009 17.6513L21.1957 17.9846C21.1784 18.6286 21.1575 19.3595 21.6123 19.6598C21.671 19.6985 21.74 19.7184 21.8102 19.7171C21.9682 19.7171 22.4439 19.7171 23.7319 17.5072C24.1277 16.7952 24.4728 16.0562 24.7648 15.2956C24.7908 15.2505 24.8672 15.1116 24.9575 15.0578C25.0248 15.0258 25.0982 15.0087 25.1728 15.0075H28.2645C28.6012 15.0075 28.8321 15.0578 28.8755 15.188C28.9519 15.3946 28.8616 16.0247 27.4503 17.936L26.8202 18.7675C25.5408 20.4444 25.5408 20.5295 26.9 21.8019Z" fill="white"/>
</svg>
