<svg width="74" height="59" viewBox="0 0 74 59" fill="none" xmlns="http://www.w3.org/2000/svg">
<path d="M7.28193 47.908H3.22593V55H1.78593V46.6H8.70993V55H7.28193V47.908ZM10.0816 52.24C10.0816 51.672 10.2096 51.172 10.4656 50.74C10.7296 50.308 11.0856 49.972 11.5336 49.732C11.9816 49.484 12.4896 49.36 13.0576 49.36C13.6256 49.36 14.1296 49.484 14.5696 49.732C15.0176 49.972 15.3736 50.308 15.6376 50.74C15.9016 51.172 16.0336 51.672 16.0336 52.24C16.0336 52.8 15.9016 53.3 15.6376 53.74C15.3736 54.172 15.0176 54.512 14.5696 54.76C14.1296 55 13.6256 55.12 13.0576 55.12C12.4896 55.12 11.9816 55 11.5336 54.76C11.0856 54.512 10.7296 54.172 10.4656 53.74C10.2096 53.3 10.0816 52.8 10.0816 52.24ZM11.4136 52.24C11.4136 52.584 11.4856 52.888 11.6296 53.152C11.7736 53.408 11.9696 53.612 12.2176 53.764C12.4656 53.908 12.7456 53.98 13.0576 53.98C13.3616 53.98 13.6376 53.908 13.8856 53.764C14.1416 53.612 14.3416 53.408 14.4856 53.152C14.6296 52.888 14.7016 52.584 14.7016 52.24C14.7016 51.896 14.6296 51.592 14.4856 51.328C14.3416 51.064 14.1416 50.86 13.8856 50.716C13.6376 50.572 13.3616 50.5 13.0576 50.5C12.7456 50.5 12.4656 50.572 12.2176 50.716C11.9696 50.86 11.7736 51.064 11.6296 51.328C11.4856 51.592 11.4136 51.896 11.4136 52.24ZM17.2153 49.48H18.4873V55H17.2153V49.48ZM20.5153 49.48H22.0993L19.7233 51.76L22.3393 55H20.7673L18.1273 51.76L20.5153 49.48ZM24.0207 53.368C24.0207 53.536 24.0647 53.676 24.1527 53.788C24.2487 53.9 24.3727 53.988 24.5247 54.052C24.6767 54.108 24.8487 54.136 25.0407 54.136C25.3207 54.136 25.5727 54.092 25.7967 54.004C26.0207 53.916 26.1967 53.776 26.3247 53.584C26.4527 53.392 26.5167 53.136 26.5167 52.816L26.7087 53.44C26.7087 53.792 26.6167 54.096 26.4327 54.352C26.2487 54.6 26.0007 54.792 25.6887 54.928C25.3767 55.056 25.0287 55.12 24.6447 55.12C24.2847 55.12 23.9567 55.056 23.6607 54.928C23.3727 54.8 23.1407 54.612 22.9647 54.364C22.7967 54.108 22.7127 53.792 22.7127 53.416C22.7127 53.04 22.8087 52.716 23.0007 52.444C23.1927 52.172 23.4647 51.964 23.8167 51.82C24.1767 51.676 24.5967 51.604 25.0767 51.604C25.3967 51.604 25.6807 51.644 25.9287 51.724C26.1847 51.804 26.3967 51.896 26.5647 52C26.7327 52.104 26.8487 52.196 26.9127 52.276V52.96C26.6647 52.776 26.4127 52.644 26.1567 52.564C25.9007 52.476 25.6047 52.432 25.2687 52.432C24.9967 52.432 24.7647 52.472 24.5727 52.552C24.3887 52.624 24.2487 52.732 24.1527 52.876C24.0647 53.012 24.0207 53.176 24.0207 53.368ZM23.7327 50.932L23.2167 50.008C23.4647 49.856 23.7807 49.708 24.1647 49.564C24.5487 49.42 24.9887 49.348 25.4847 49.348C25.9407 49.348 26.3407 49.416 26.6847 49.552C27.0287 49.688 27.2967 49.884 27.4887 50.14C27.6887 50.388 27.7887 50.696 27.7887 51.064V55H26.5167V51.208C26.5167 50.952 26.4087 50.756 26.1927 50.62C25.9847 50.476 25.7287 50.404 25.4247 50.404C25.1607 50.404 24.9167 50.436 24.6927 50.5C24.4687 50.564 24.2727 50.64 24.1047 50.728C23.9447 50.808 23.8207 50.876 23.7327 50.932ZM31.5062 52.24V51.664C31.8262 51.664 32.0542 51.604 32.1902 51.484C32.3342 51.356 32.4062 51.2 32.4062 51.016C32.4062 50.832 32.3342 50.684 32.1902 50.572C32.0542 50.46 31.8662 50.404 31.6262 50.404C31.4262 50.404 31.2582 50.444 31.1222 50.524C30.9862 50.596 30.8822 50.692 30.8102 50.812C30.7462 50.924 30.7142 51.044 30.7142 51.172H29.4662C29.4662 50.828 29.5582 50.52 29.7422 50.248C29.9262 49.976 30.1782 49.76 30.4982 49.6C30.8262 49.44 31.1982 49.36 31.6142 49.36C32.0062 49.36 32.3582 49.428 32.6702 49.564C32.9822 49.7 33.2262 49.884 33.4022 50.116C33.5782 50.348 33.6662 50.604 33.6662 50.884C33.6662 51.284 33.4822 51.616 33.1142 51.88C32.7462 52.136 32.2102 52.256 31.5062 52.24ZM31.5902 55.12C30.8862 55.12 30.3262 54.944 29.9102 54.592C29.5022 54.232 29.2662 53.768 29.2022 53.2H30.4742C30.5302 53.456 30.6422 53.672 30.8102 53.848C30.9862 54.016 31.2462 54.1 31.5902 54.1C31.8142 54.1 32.0062 54.068 32.1662 54.004C32.3262 53.94 32.4462 53.852 32.5262 53.74C32.6142 53.62 32.6582 53.48 32.6582 53.32C32.6582 53.152 32.6142 53.008 32.5262 52.888C32.4382 52.768 32.3062 52.676 32.1302 52.612C31.9622 52.548 31.7542 52.516 31.5062 52.516V51.88C32.2502 51.864 32.8342 51.984 33.2582 52.24C33.6902 52.488 33.9062 52.868 33.9062 53.38C33.9062 53.74 33.8022 54.052 33.5942 54.316C33.3942 54.572 33.1182 54.772 32.7662 54.916C32.4142 55.052 32.0222 55.12 31.5902 55.12ZM36.091 53.368C36.091 53.536 36.135 53.676 36.223 53.788C36.319 53.9 36.443 53.988 36.595 54.052C36.747 54.108 36.919 54.136 37.111 54.136C37.391 54.136 37.643 54.092 37.867 54.004C38.091 53.916 38.267 53.776 38.395 53.584C38.523 53.392 38.587 53.136 38.587 52.816L38.779 53.44C38.779 53.792 38.687 54.096 38.503 54.352C38.319 54.6 38.071 54.792 37.759 54.928C37.447 55.056 37.099 55.12 36.715 55.12C36.355 55.12 36.027 55.056 35.731 54.928C35.443 54.8 35.211 54.612 35.035 54.364C34.867 54.108 34.783 53.792 34.783 53.416C34.783 53.04 34.879 52.716 35.071 52.444C35.263 52.172 35.535 51.964 35.887 51.82C36.247 51.676 36.667 51.604 37.147 51.604C37.467 51.604 37.751 51.644 37.999 51.724C38.255 51.804 38.467 51.896 38.635 52C38.803 52.104 38.919 52.196 38.983 52.276V52.96C38.735 52.776 38.483 52.644 38.227 52.564C37.971 52.476 37.675 52.432 37.339 52.432C37.067 52.432 36.835 52.472 36.643 52.552C36.459 52.624 36.319 52.732 36.223 52.876C36.135 53.012 36.091 53.176 36.091 53.368ZM35.803 50.932L35.287 50.008C35.535 49.856 35.851 49.708 36.235 49.564C36.619 49.42 37.059 49.348 37.555 49.348C38.011 49.348 38.411 49.416 38.755 49.552C39.099 49.688 39.367 49.884 39.559 50.14C39.759 50.388 39.859 50.696 39.859 51.064V55H38.587V51.208C38.587 50.952 38.479 50.756 38.263 50.62C38.055 50.476 37.799 50.404 37.495 50.404C37.231 50.404 36.987 50.436 36.763 50.5C36.539 50.564 36.343 50.64 36.175 50.728C36.015 50.808 35.891 50.876 35.803 50.932ZM40.6125 49.48H44.1045V50.62H40.6125V49.48ZM41.7285 49.72H43.0005V55H41.7285V49.72ZM45.0139 49.48H46.3219V55H45.0139V49.48ZM45.9259 52.456V51.484H47.6419C48.2099 51.484 48.6859 51.624 49.0699 51.904C49.4619 52.176 49.6579 52.608 49.6579 53.2C49.6579 53.592 49.5699 53.924 49.3939 54.196C49.2179 54.46 48.9779 54.66 48.6739 54.796C48.3699 54.932 48.0259 55 47.6419 55H45.9259V53.932H47.5099C47.7019 53.932 47.8619 53.904 47.9899 53.848C48.1259 53.792 48.2259 53.708 48.2899 53.596C48.3619 53.484 48.3979 53.352 48.3979 53.2C48.3979 52.96 48.3219 52.776 48.1699 52.648C48.0259 52.52 47.8059 52.456 47.5099 52.456H45.9259ZM55.5093 52.12H57.2613C57.6453 52.12 57.9893 52.16 58.2933 52.24C58.5973 52.32 58.8373 52.46 59.0133 52.66C59.1893 52.86 59.2773 53.14 59.2773 53.5C59.2773 53.916 59.1373 54.272 58.8573 54.568C58.5853 54.856 58.1333 55 57.5013 55H55.5093V54.04H57.1053C57.4253 54.04 57.6573 53.972 57.8013 53.836C57.9453 53.7 58.0173 53.54 58.0173 53.356C58.0173 53.26 57.9973 53.172 57.9573 53.092C57.9173 53.012 57.8613 52.94 57.7893 52.876C57.7253 52.812 57.6333 52.764 57.5133 52.732C57.4013 52.7 57.2653 52.684 57.1053 52.684H55.5093V52.12ZM55.5093 52.36V51.736H56.9853C57.1053 51.736 57.2133 51.72 57.3093 51.688C57.4133 51.656 57.4973 51.608 57.5613 51.544C57.6253 51.48 57.6773 51.408 57.7173 51.328C57.7573 51.248 57.7773 51.164 57.7773 51.076C57.7773 50.892 57.7053 50.74 57.5613 50.62C57.4253 50.5 57.2333 50.44 56.9853 50.44H55.5093V49.48H57.1413C57.4853 49.48 57.7973 49.532 58.0773 49.636C58.3653 49.732 58.5973 49.892 58.7733 50.116C58.9493 50.332 59.0373 50.62 59.0373 50.98C59.0373 51.292 58.9493 51.552 58.7733 51.76C58.5973 51.96 58.3653 52.112 58.0773 52.216C57.7973 52.312 57.4853 52.36 57.1413 52.36H55.5093ZM54.7533 49.48H56.0253V55H54.7533V49.48ZM61.3343 52.24C61.3343 52.592 61.4103 52.9 61.5623 53.164C61.7143 53.42 61.9183 53.624 62.1743 53.776C62.4383 53.928 62.7303 54.004 63.0503 54.004C63.3143 54.004 63.5663 53.964 63.8063 53.884C64.0463 53.804 64.2583 53.692 64.4423 53.548C64.6263 53.404 64.7623 53.244 64.8503 53.068V54.496C64.6583 54.688 64.3983 54.84 64.0703 54.952C63.7423 55.064 63.3823 55.12 62.9903 55.12C62.4223 55.12 61.9103 55 61.4543 54.76C61.0063 54.512 60.6503 54.172 60.3863 53.74C60.1303 53.3 60.0023 52.8 60.0023 52.24C60.0023 51.672 60.1303 51.172 60.3863 50.74C60.6503 50.308 61.0063 49.972 61.4543 49.732C61.9103 49.484 62.4223 49.36 62.9903 49.36C63.3823 49.36 63.7423 49.416 64.0703 49.528C64.3983 49.64 64.6583 49.792 64.8503 49.984V51.412C64.7623 51.228 64.6223 51.068 64.4303 50.932C64.2463 50.788 64.0343 50.676 63.7943 50.596C63.5543 50.516 63.3063 50.476 63.0503 50.476C62.7303 50.476 62.4383 50.552 62.1743 50.704C61.9183 50.856 61.7143 51.064 61.5623 51.328C61.4103 51.592 61.3343 51.896 61.3343 52.24ZM66.6308 52.54V51.652H70.0988C70.0668 51.388 69.9948 51.16 69.8828 50.968C69.7788 50.768 69.6308 50.616 69.4388 50.512C69.2468 50.4 69.0108 50.344 68.7308 50.344C68.4428 50.344 68.1828 50.408 67.9508 50.536C67.7188 50.656 67.5348 50.836 67.3988 51.076C67.2628 51.308 67.1948 51.584 67.1948 51.904L67.1708 52.24C67.1708 52.648 67.2348 52.988 67.3628 53.26C67.4988 53.524 67.6828 53.724 67.9148 53.86C68.1548 53.988 68.4308 54.052 68.7428 54.052C68.9988 54.052 69.2228 54.016 69.4148 53.944C69.6148 53.872 69.7908 53.772 69.9428 53.644C70.0948 53.508 70.2228 53.352 70.3268 53.176L71.4428 53.632C71.2588 53.928 71.0468 54.188 70.8068 54.412C70.5748 54.636 70.2868 54.812 69.9428 54.94C69.6068 55.06 69.1868 55.12 68.6828 55.12C68.1148 55.12 67.6188 54.996 67.1948 54.748C66.7708 54.5 66.4428 54.16 66.2108 53.728C65.9788 53.288 65.8628 52.792 65.8628 52.24C65.8628 52.136 65.8668 52.036 65.8748 51.94C65.8828 51.844 65.8948 51.748 65.9108 51.652C65.9908 51.196 66.1508 50.796 66.3908 50.452C66.6388 50.108 66.9628 49.84 67.3628 49.648C67.7628 49.456 68.2228 49.36 68.7428 49.36C69.3108 49.36 69.7988 49.476 70.2068 49.708C70.6228 49.932 70.9428 50.256 71.1668 50.68C71.3908 51.096 71.5028 51.596 71.5028 52.18C71.5028 52.228 71.5028 52.284 71.5028 52.348C71.5028 52.404 71.4948 52.468 71.4788 52.54H66.6308Z" fill="white"/>
<path d="M22.2009 22.5H48.4509" stroke="white" stroke-width="4" stroke-linecap="round" stroke-linejoin="round"/>
<path d="M35.3259 9.375L48.4509 22.5L35.3259 35.625" stroke="white" stroke-width="4" stroke-linecap="round" stroke-linejoin="round"/>
</svg>
